# xmcd
#
# Track frame offsets:
#	150
#	13283
#	26143
#	37768
#	49503
#	60023
#	72088
#	84998
#	95490
#	108060
#	121508
#	136055
#
# Disc length: 1964 seconds
#
# Revision: 0
# Processed by: cddbd v1.4PL0 Copyright (c) Steve Scherf et al.
# Submitted via: dBpowerAMP V4.0
#
DISCID=8107aa0c
DTITLE=Sam and Dave - Sam and Dave Gold
DYEAR=1900
DGENRE=
TTITLE0=Soul Man
TTITLE1=I Thank You
TTITLE2=Soul Sister, Brown Sugar
TTITLE3=Hold On, I'm Comin'
TTITLE4=Sweet Soul Music
TTITLE5=You Don't Know Like I Know
TTITLE6=You Got Me Hummin'
TTITLE7=Can't you Find Another Way Of Doing It BAby
TTITLE8=I Said I Wouldn't Tell Nobody
TTITLE9=Don't Pull Your Love Out On Me Baby
TTITLE10=When Something Is Wrong With My baby
TTITLE11=You Don't Know What You Mean To Me
EXTD=tim1701
EXTT0=
EXTT1=
EXTT2=
EXTT3=
EXTT4=
EXTT5=
EXTT6=
EXTT7=
EXTT8=
EXTT9=
EXTT10=
EXTT11=
PLAYORDER=
